REM DIRINDEX 1\2,1\3,1\4,1\5
REM DIRNAME folder01,folder02,folder03,folder04,folder05
TITLE ""
FILE "176.mp3" MP3
  TRACK 01 AUDIO
    TITLE "0:"
    INDEX 01 00:00:00
  TRACK 02 AUDIO
    TITLE "2:cjc046_5413"
    INDEX 01 00:00:07
  TRACK 03 AUDIO
    TITLE "0:"
    INDEX 01 00:01:22
  TRACK 04 AUDIO
    TITLE "3:cjc046_5414"
    INDEX 01 00:01:42
  TRACK 05 AUDIO
    TITLE "0:"
    INDEX 01 00:02:67
  TRACK 06 AUDIO
    TITLE "4:cjc046_5415"
    INDEX 01 00:03:06
  TRACK 07 AUDIO
    TITLE "0:"
    INDEX 01 00:04:21
  TRACK 08 AUDIO
    TITLE "2:cjc046_5416"
    INDEX 01 00:05:26
  TRACK 09 AUDIO
    TITLE "0:"
    INDEX 01 00:06:73
  TRACK 10 AUDIO
    TITLE "3:cjc046_5417"
    INDEX 01 00:07:17
  TRACK 11 AUDIO
    TITLE "0:"
    INDEX 01 00:08:30
  TRACK 12 AUDIO
    TITLE "4:cjc046_5418"
    INDEX 01 00:08:38
  TRACK 13 AUDIO
    TITLE "0:"
    INDEX 01 00:10:10
  TRACK 14 AUDIO
    TITLE "2:cjc046_5419"
    INDEX 01 00:11:23
  TRACK 15 AUDIO
    TITLE "0:"
    INDEX 01 00:12:24
  TRACK 16 AUDIO
    TITLE "3:cjc046_5420"
    INDEX 01 00:12:44
  TRACK 17 AUDIO
    TITLE "0:"
    INDEX 01 00:13:51
  TRACK 18 AUDIO
    TITLE "4:cjc046_5421"
    INDEX 01 00:13:69
  TRACK 19 AUDIO
    TITLE "0:"
    INDEX 01 00:14:68
  TRACK 20 AUDIO
    TITLE "2:cjc046_5422"
    INDEX 01 00:16:00
  TRACK 21 AUDIO
    TITLE "0:"
    INDEX 01 00:17:16
  TRACK 22 AUDIO
    TITLE "3:cjc046_5423"
    INDEX 01 00:17:39
  TRACK 23 AUDIO
    TITLE "0:"
    INDEX 01 00:18:66
  TRACK 24 AUDIO
    TITLE "4:cjc046_5424"
    INDEX 01 00:19:09
  TRACK 25 AUDIO
    TITLE "0:"
    INDEX 01 00:20:24
  TRACK 26 AUDIO
    TITLE "2:cjc046_5425"
    INDEX 01 00:21:33
  TRACK 27 AUDIO
    TITLE "0:"
    INDEX 01 00:22:36
  TRACK 28 AUDIO
    TITLE "3:cjc046_5426"
    INDEX 01 00:22:56
  TRACK 29 AUDIO
    TITLE "0:"
    INDEX 01 00:24:06
  TRACK 30 AUDIO
    TITLE "4:cjc046_5427"
    INDEX 01 00:24:24
  TRACK 31 AUDIO
    TITLE "0:"
    INDEX 01 00:25:27
  TRACK 32 AUDIO
    TITLE "2:cjc046_5428"
    INDEX 01 00:26:36
  TRACK 33 AUDIO
    TITLE "0:"
    INDEX 01 00:27:55
  TRACK 34 AUDIO
    TITLE "3:cjc046_5429"
    INDEX 01 00:28:02
  TRACK 35 AUDIO
    TITLE "0:"
    INDEX 01 00:30:10
  TRACK 36 AUDIO
    TITLE "4:cjc046_5430"
    INDEX 01 00:30:22
  TRACK 37 AUDIO
    TITLE "0:"
    INDEX 01 00:31:41
  TRACK 38 AUDIO
    TITLE "2:cjc046_5431"
    INDEX 01 00:32:50
  TRACK 39 AUDIO
    TITLE "0:"
    INDEX 01 00:33:64
  TRACK 40 AUDIO
    TITLE "3:cjc046_5432"
    INDEX 01 00:34:08
  TRACK 41 AUDIO
    TITLE "0:"
    INDEX 01 00:36:07
  TRACK 42 AUDIO
    TITLE "4:cjc046_5433"
    INDEX 01 00:36:17
  TRACK 43 AUDIO
    TITLE "0:"
    INDEX 01 00:37:34
  TRACK 44 AUDIO
    TITLE "2:cjc046_5434"
    INDEX 01 00:38:39
  TRACK 45 AUDIO
    TITLE "0:"
    INDEX 01 00:39:45
  TRACK 46 AUDIO
    TITLE "3:cjc046_5435"
    INDEX 01 00:39:64
  TRACK 47 AUDIO
    TITLE "0:"
    INDEX 01 00:42:02
  TRACK 48 AUDIO
    TITLE "4:cjc046_5436"
    INDEX 01 00:42:14
  TRACK 49 AUDIO
    TITLE "0:"
    INDEX 01 00:43:19
  TRACK 50 AUDIO
    TITLE "2:cjc046_5437"
    INDEX 01 00:44:28
  TRACK 51 AUDIO
    TITLE "0:"
    INDEX 01 00:45:41
  TRACK 52 AUDIO
    TITLE "3:cjc046_5438"
    INDEX 01 00:45:59
  TRACK 53 AUDIO
    TITLE "0:"
    INDEX 01 00:47:05
  TRACK 54 AUDIO
    TITLE "4:cjc046_5439"
    INDEX 01 00:47:13
  TRACK 55 AUDIO
    TITLE "0:"
    INDEX 01 00:48:26
  TRACK 56 AUDIO
    TITLE "2:cjc046_5440"
    INDEX 01 00:49:31
  TRACK 57 AUDIO
    TITLE "0:"
    INDEX 01 00:50:46
  TRACK 58 AUDIO
    TITLE "3:cjc046_5441"
    INDEX 01 00:50:60
  TRACK 59 AUDIO
    TITLE "0:"
    INDEX 01 00:52:12
  TRACK 60 AUDIO
    TITLE "4:cjc046_5442"
    INDEX 01 00:52:22
  TRACK 61 AUDIO
    TITLE "0:"
    INDEX 01 00:53:35
  TRACK 62 AUDIO
    TITLE "2:cjc046_5443"
    INDEX 01 00:54:46
  TRACK 63 AUDIO
    TITLE "0:"
    INDEX 01 00:55:67
  TRACK 64 AUDIO
    TITLE "3:cjc046_5444"
    INDEX 01 00:56:10
  TRACK 65 AUDIO
    TITLE "0:"
    INDEX 01 00:57:19
  TRACK 66 AUDIO
    TITLE "4:cjc046_5445"
    INDEX 01 00:57:27
  TRACK 67 AUDIO
    TITLE "0:"
    INDEX 01 00:58:46
  TRACK 68 AUDIO
    TITLE "2:cjc046_5446"
    INDEX 01 00:59:47
  TRACK 69 AUDIO
    TITLE "0:"
    INDEX 01 01:00:62
  TRACK 70 AUDIO
    TITLE "3:cjc046_5447"
    INDEX 01 01:01:05
  TRACK 71 AUDIO
    TITLE "0:"
    INDEX 01 01:02:50
  TRACK 72 AUDIO
    TITLE "4:cjc046_5448"
    INDEX 01 01:02:55
  TRACK 73 AUDIO
    TITLE "0:"
    INDEX 01 01:03:69
  TRACK 74 AUDIO
    TITLE "2:cjc046_5449"
    INDEX 01 01:05:03
  TRACK 75 AUDIO
    TITLE "0:"
    INDEX 01 01:06:06
  TRACK 76 AUDIO
    TITLE "3:cjc046_5450"
    INDEX 01 01:06:28
  TRACK 77 AUDIO
    TITLE "0:"
    INDEX 01 01:07:39
  TRACK 78 AUDIO
    TITLE "4:cjc046_5451"
    INDEX 01 01:07:53
  TRACK 79 AUDIO
    TITLE "0:"
    INDEX 01 01:08:56
  TRACK 80 AUDIO
    TITLE "2:cjc046_5452"
    INDEX 01 01:09:67
  TRACK 81 AUDIO
    TITLE "0:"
    INDEX 01 01:11:05
  TRACK 82 AUDIO
    TITLE "3:cjc046_5453"
    INDEX 01 01:11:25
  TRACK 83 AUDIO
    TITLE "0:"
    INDEX 01 01:12:24
  TRACK 84 AUDIO
    TITLE "4:cjc046_5454"
    INDEX 01 01:12:38
  TRACK 85 AUDIO
    TITLE "0:"
    INDEX 01 01:13:53
  TRACK 86 AUDIO
    TITLE "2:cjc046_5455"
    INDEX 01 01:14:63
  TRACK 87 AUDIO
    TITLE "0:"
    INDEX 01 01:15:68
  TRACK 88 AUDIO
    TITLE "3:cjc046_5456"
    INDEX 01 01:16:12
  TRACK 89 AUDIO
    TITLE "0:"
    INDEX 01 01:17:20
  TRACK 90 AUDIO
    TITLE "4:cjc046_5457"
    INDEX 01 01:17:30
  TRACK 91 AUDIO
    TITLE "0:"
    INDEX 01 01:18:35
  TRACK 92 AUDIO
    TITLE "2:cjc046_5458"
    INDEX 01 01:19:36
  TRACK 93 AUDIO
    TITLE "0:"
    INDEX 01 01:20:51
  TRACK 94 AUDIO
    TITLE "3:cjc046_5459"
    INDEX 01 01:20:69
  TRACK 95 AUDIO
    TITLE "0:"
    INDEX 01 01:22:17
  TRACK 96 AUDIO
    TITLE "4:cjc046_5460"
    INDEX 01 01:22:25
  TRACK 97 AUDIO
    TITLE "0:"
    INDEX 01 01:23:40
  TRACK 98 AUDIO
    TITLE "2:cjc046_5461"
    INDEX 01 01:24:51
  TRACK 99 AUDIO
    TITLE "0:"
    INDEX 01 01:25:51
  TRACK 100 AUDIO
    TITLE "3:cjc046_5462"
    INDEX 01 01:25:62
  TRACK 101 AUDIO
    TITLE "0:"
    INDEX 01 01:26:52
  TRACK 102 AUDIO
    TITLE "4:cjc046_5463"
    INDEX 01 01:26:70
  TRACK 103 AUDIO
    TITLE "0:"
    INDEX 01 01:27:71
